<?xml version="1.0" encoding="UTF-8" standalone="no"?>
<!-- Created with Inkscape (http://www.inkscape.org/) -->

<svg
   xmlns:dc="http://purl.org/dc/elements/1.1/"
   xmlns:cc="http://creativecommons.org/ns#"
   xmlns:rdf="http://www.w3.org/1999/02/22-rdf-syntax-ns#"
   xmlns:svg="http://www.w3.org/2000/svg"
   xmlns="http://www.w3.org/2000/svg"
   xmlns:sodipodi="http://sodipodi.sourceforge.net/DTD/sodipodi-0.dtd"
   xmlns:inkscape="http://www.inkscape.org/namespaces/inkscape"
   width="112.32"
   height="75.709999"
   id="svg2"
   version="1.1"
   inkscape:version="0.47 r22583"
   sodipodi:docname="New document 1">
  <defs
     id="defs4">
    <inkscape:perspective
       sodipodi:type="inkscape:persp3d"
       inkscape:vp_x="0 : 526.18109 : 1"
       inkscape:vp_y="0 : 1000 : 0"
       inkscape:vp_z="744.09448 : 526.18109 : 1"
       inkscape:persp3d-origin="372.04724 : 350.78739 : 1"
       id="perspective10" />
    <clipPath
       id="clipPath3290"
       clipPathUnits="userSpaceOnUse">
      <path
         id="path3292"
         clip-rule="evenodd"
         d="m 316.85,10.32 206.81,0 0,44.784 -206.81,0 0,-44.784 z" />
    </clipPath>
    <clipPath
       id="clipPath3172"
       clipPathUnits="userSpaceOnUse">
      <path
         id="path3174"
         d="m 0,0 86.832,0 0,32.776 L 0,32.776 0,0 z" />
    </clipPath>
    <clipPath
       id="clipPath3162"
       clipPathUnits="userSpaceOnUse">
      <path
         id="path3164"
         clip-rule="evenodd"
         d="m 316.85,10.32 206.81,0 0,44.784 -206.81,0 0,-44.784 z" />
    </clipPath>
    <clipPath
       id="clipPath3154"
       clipPathUnits="userSpaceOnUse">
      <path
         id="path3156"
         clip-rule="evenodd"
         d="m 62.16,10.32 254.69,0 0,44.784 -254.69,0 0,-44.784 z" />
    </clipPath>
    <clipPath
       id="clipPath2932"
       clipPathUnits="userSpaceOnUse">
      <path
         id="path2934"
         d="m 0,0 244.5,0 0,31.869 L 0,31.869 0,0 z" />
    </clipPath>
    <clipPath
       id="clipPath2922"
       clipPathUnits="userSpaceOnUse">
      <path
         id="path2924"
         clip-rule="evenodd"
         d="m 62.16,10.32 254.69,0 0,44.784 -254.69,0 0,-44.784 z" />
    </clipPath>
    <clipPath
       id="clipPath2914"
       clipPathUnits="userSpaceOnUse">
      <path
         id="path2916"
         clip-rule="evenodd"
         d="m 275.21,733.54 230.45,0 0,81.144 -230.45,0 0,-81.144 z" />
    </clipPath>
    <clipPath
       id="clipPath2884"
       clipPathUnits="userSpaceOnUse">
      <path
         id="path2886"
         d="m 0,0 147.92,0 0,23.053 L 0,23.053 0,0 z" />
    </clipPath>
    <clipPath
       id="clipPath2874"
       clipPathUnits="userSpaceOnUse">
      <path
         id="path2876"
         clip-rule="evenodd"
         d="m 275.21,733.54 230.45,0 0,81.144 -230.45,0 0,-81.144 z" />
    </clipPath>
    <clipPath
       id="clipPath2866"
       clipPathUnits="userSpaceOnUse">
      <path
         id="path2868"
         clip-rule="evenodd"
         d="m 275.21,733.54 230.45,0 0,81.144 -230.45,0 0,-81.144 z" />
    </clipPath>
    <clipPath
       id="clipPath2858"
       clipPathUnits="userSpaceOnUse">
      <path
         id="path2860"
         clip-rule="evenodd"
         d="m 275.21,733.54 230.45,0 0,81.144 -230.45,0 0,-81.144 z" />
    </clipPath>
    <clipPath
       id="clipPath2850"
       clipPathUnits="userSpaceOnUse">
      <path
         id="path2852"
         clip-rule="evenodd"
         d="m 275.21,733.54 230.45,0 0,81.144 -230.45,0 0,-81.144 z" />
    </clipPath>
    <clipPath
       id="clipPath2842"
       clipPathUnits="userSpaceOnUse">
      <path
         id="path2844"
         clip-rule="evenodd"
         d="m 62.16,733.54 213.05,0 0,81.144 -213.05,0 0,-81.144 z" />
    </clipPath>
    <clipPath
       id="clipPath2832"
       clipPathUnits="userSpaceOnUse">
      <path
         id="path2834"
         clip-rule="evenodd"
         d="m 62.16,733.54 213.05,0 0,81.144 -213.05,0 0,-81.144 z" />
    </clipPath>
    <inkscape:perspective
       id="perspective2824"
       inkscape:persp3d-origin="0.5 : 0.33333333 : 1"
       inkscape:vp_z="1 : 0.5 : 1"
       inkscape:vp_y="0 : 1000 : 0"
       inkscape:vp_x="0 : 0.5 : 1"
       sodipodi:type="inkscape:persp3d" />
    <inkscape:perspective
       id="perspective5062"
       inkscape:persp3d-origin="0.5 : 0.33333333 : 1"
       inkscape:vp_z="1 : 0.5 : 1"
       inkscape:vp_y="0 : 1000 : 0"
       inkscape:vp_x="0 : 0.5 : 1"
       sodipodi:type="inkscape:persp3d" />
    <inkscape:perspective
       id="perspective2827"
       inkscape:persp3d-origin="0.5 : 0.33333333 : 1"
       inkscape:vp_z="1 : 0.5 : 1"
       inkscape:vp_y="0 : 1000 : 0"
       inkscape:vp_x="0 : 0.5 : 1"
       sodipodi:type="inkscape:persp3d" />
    <inkscape:perspective
       id="perspective5093"
       inkscape:persp3d-origin="0.5 : 0.33333333 : 1"
       inkscape:vp_z="1 : 0.5 : 1"
       inkscape:vp_y="0 : 1000 : 0"
       inkscape:vp_x="0 : 0.5 : 1"
       sodipodi:type="inkscape:persp3d" />
    <inkscape:perspective
       id="perspective5884"
       inkscape:persp3d-origin="0.5 : 0.33333333 : 1"
       inkscape:vp_z="1 : 0.5 : 1"
       inkscape:vp_y="0 : 1000 : 0"
       inkscape:vp_x="0 : 0.5 : 1"
       sodipodi:type="inkscape:persp3d" />
  </defs>
  <sodipodi:namedview
     id="base"
     pagecolor="#ffffff"
     bordercolor="#666666"
     borderopacity="1.0"
     inkscape:pageopacity="0.0"
     inkscape:pageshadow="2"
     inkscape:zoom="3.45625"
     inkscape:cx="62.797003"
     inkscape:cy="32.681602"
     inkscape:document-units="px"
     inkscape:current-layer="layer1"
     showgrid="false"
     inkscape:window-width="1680"
     inkscape:window-height="1000"
     inkscape:window-x="-8"
     inkscape:window-y="-8"
     inkscape:window-maximized="1" />
  <metadata
     id="metadata7">
    <rdf:RDF>
      <cc:Work
         rdf:about="">
        <dc:format>image/svg+xml</dc:format>
        <dc:type
           rdf:resource="http://purl.org/dc/dcmitype/StillImage" />
        <dc:title></dc:title>
      </cc:Work>
    </rdf:RDF>
  </metadata>
  <g
     inkscape:label="Layer 1"
     inkscape:groupmode="layer"
     id="layer1"
     transform="translate(-438.9083,119.86254)">
    <g
       id="g2846"
       transform="matrix(0.75049358,0,0,-0.75049358,175.34816,530.14209)">
      <g
         id="g2848"
         clip-path="url(#clipPath2850)">
        <g
           id="g2854">
          <g
             id="g2856"
             clip-path="url(#clipPath2858)" />
        </g>
        <g
           id="g2862">
          <g
             id="g2864"
             clip-path="url(#clipPath2866)" />
        </g>
        <g
           id="g2870">
          <g
             id="g2872"
             clip-path="url(#clipPath2874)">
            <g
               id="g2878"
               transform="matrix(2.0417,0,0,0.31181,353.11,766.72)">
              <g
                 id="g2880"
                 transform="scale(0.48675,3.1233)">
                <g
                   id="g2882"
                   clip-path="url(#clipPath2884)">
                  <path
                     d="m 0,0.34114 11.59,0 0.59,3.37106 -7.431,0 3.5679,17.1748 -4.1584,0 L 0,0.34114 z"
                     style="fill:#000000;fill-opacity:1;fill-rule:evenodd;stroke:none"
                     id="path2888" />
                  <path
                     d="m 25.246,0.34114 c 4.454,0 4.454,0 4.454,0 -2.387,3.37106 -2.387,3.37106 -2.387,3.37106 1.796,2.1407 2.977,4.9213 3.273,7.6768 -3.273,0 -3.273,0 -3.273,0 -0.295,-1.8451 -0.886,-3.3707 -1.772,-4.9209 -2.977,4.3059 -2.977,4.3059 -2.977,4.3059 2.682,0.911 5.364,2.461 5.364,5.832 0,3.076 -3.272,4.601 -5.659,4.601 -2.978,0 -5.93,-1.845 -5.93,-5.216 0,-1.846 0.59,-2.756 1.476,-3.986 -2.977,-0.616 -5.34,-2.7564 -5.34,-6.1521 0,-4.2814 3.273,-5.807038 6.816,-5.807038 1.797,0 4.183,0.615158 5.365,1.525638 l 0.59,-1.23036 z M 22.859,4.0321 C 21.973,3.4169 20.792,3.097 19.611,3.097 c -1.796,0 -3.568,0.9351 -3.568,2.7559 0,2.1654 1.772,3.0758 3.248,3.691 l 3.568,-5.5118 z m 1.797,12.5739 c 0,-2.141 -2.092,-3.076 -3.568,-3.371 -0.591,0.615 -1.182,1.845 -1.182,2.436 0,1.845 1.182,2.46 2.658,2.46 0.91,0 2.092,-0.295 2.092,-1.525 z"
                     style="fill:#000000;fill-opacity:1;fill-rule:evenodd;stroke:none"
                     id="path2890" />
                  <path
                     d="m 29.995,17.516 5.34,0 -3.544,-17.17486 4.159,0 3.543,17.17486 5.069,0 0.591,3.371 -14.272,0 -0.886,-3.371 z"
                     style="fill:#000000;fill-opacity:1;fill-rule:evenodd;stroke:none"
                     id="path2892" />
                  <path
                     d="m 49.606,0.34114 4.159,0 4.158,20.54586 -4.158,0 -4.159,-20.54586 z"
                     style="fill:#000000;fill-opacity:1;fill-rule:evenodd;stroke:none"
                     id="path2894" />
                  <path
                     d="m 56.447,0.34114 c 3.863,0 3.863,0 3.863,0 1.476,7.67716 1.476,7.67716 1.476,7.67716 0.591,2.1407 1.477,4.6017 4.159,4.6017 1.181,0 2.091,-0.615 2.091,-1.846 0,-1.2301 -0.319,-2.1405 -0.615,-3.3709 C 66.24,0.34114 66.24,0.34114 66.24,0.34114 c 3.568,0 3.568,0 3.568,0 1.476,7.35726 1.476,7.35726 1.476,7.35726 0.296,0.9351 0.591,2.1654 0.591,3.3706 0,2.781 -1.772,4.602 -4.749,4.602 -1.476,0 -2.953,-0.591 -4.158,-1.821 0,0 0,0 0,0 0.295,1.526 0.295,1.526 0.295,1.526 -3.863,0 -3.863,0 -3.863,0 0,-0.296 0,-1.231 -0.296,-2.141 L 56.447,0.34114 z"
                     style="fill:#000000;fill-opacity:1;fill-rule:evenodd;stroke:none"
                     id="path2896" />
                  <path
                     d="m 72.785,0.34114 c 3.864,0 3.864,0 3.864,0 C 79.306,12.62 79.306,12.62 79.306,12.62 c 3.273,0 3.273,0 3.273,0 0.59,2.756 0.59,2.756 0.59,2.756 -3.272,0 -3.272,0 -3.272,0 0.32,1.525 0.615,4.306 2.977,4.306 0.295,0 0.591,-0.32 0.886,-0.32 0.91,3.076 0.91,3.076 0.91,3.076 -0.615,0 -1.501,0.295 -2.387,0.295 -4.158,0 -5.634,-3.371 -6.225,-7.357 -2.977,0 -2.977,0 -2.977,0 C 72.49,12.62 72.49,12.62 72.49,12.62 c 2.953,0 2.953,0 2.953,0 L 72.785,0.34114 z"
                     style="fill:#000000;fill-opacity:1;fill-rule:evenodd;stroke:none"
                     id="path2898" />
                  <path
                     d="m 88.238,3.097 c -2.091,0 -2.977,1.5502 -2.977,3.3711 0,2.7805 1.476,6.1519 4.454,6.1519 2.362,0 2.977,-1.551 2.977,-3.3714 0,-2.7805 -1.501,-6.1516 -4.454,-6.1516 z m 1.772,12.574 c -5.044,0 -8.612,-3.666 -8.612,-8.883 0,-3.9862 2.362,-6.742138 6.52,-6.742138 5.069,0 8.637,3.986238 8.637,9.202738 0,3.9864 -2.682,6.4224 -6.545,6.4224 z"
                     style="fill:#000000;fill-opacity:1;fill-rule:evenodd;stroke:none"
                     id="path2900" />
                  <path
                     d="m 96.85,12.62 c 2.953,0 2.953,0 2.953,0 C 98.622,7.4031 98.622,7.4031 98.622,7.4031 98.327,6.1728 98.327,5.2624 98.327,4.0321 c 0,-3.0758 1.773,-3.986238 4.163,-3.986238 0.59,0 1.47,0.295278 2.09,0.295278 0.59,3.07576 0.59,3.07576 0.59,3.07576 -0.3,-0.3199 -1.21,-0.3199 -1.8,-0.3199 -0.88,0 -1.48,0.6152 -1.48,1.5502 0,0.6152 0.3,0.9105 0.3,1.2057 1.48,6.7671 1.48,6.7671 1.48,6.7671 3.27,0 3.27,0 3.27,0 0.59,2.756 0.59,2.756 0.59,2.756 -3.27,0 -3.27,0 -3.27,0 0.91,4.601 0.91,4.601 0.91,4.601 -4.16,-1.526 -4.16,-1.526 -4.16,-1.526 -0.59,-3.075 -0.59,-3.075 -0.59,-3.075 -2.684,0 -2.684,0 -2.684,0 L 96.85,12.62 z"
                     style="fill:#000000;fill-opacity:1;fill-rule:evenodd;stroke:none"
                     id="path2902" />
                  <path
                     d="m 120.3,6.788 c 0,0.9104 0.32,2.1407 0.32,3.371 0,3.691 -2.39,5.512 -5.95,5.512 -4.75,0 -8.32,-4.282 -8.32,-9.2029 0,-4.2815 2.68,-6.422238 6.84,-6.422238 1.77,0 3.25,0.295278 4.75,0.910438 0.59,3.0758 0.59,3.0758 0.59,3.0758 -1.48,-0.6152 -2.98,-1.2303 -4.46,-1.2303 -2.68,0 -4.15,1.2303 -4.15,3.9862 l 10.38,0 z m -9.79,2.4606 c 0.59,2.1404 1.77,3.6664 3.86,3.6664 1.77,0 2.68,-0.91 2.68,-2.436 0,-0.32 -0.29,-0.6152 -0.29,-1.2304 l -6.25,0 z"
                     style="fill:#000000;fill-opacity:1;fill-rule:evenodd;stroke:none"
                     id="path2904" />
                  <path
                     d="m 133.98,15.08 c -1.18,0.296 -2.39,0.591 -3.86,0.591 -5.34,0 -8.61,-3.986 -8.61,-9.2029 0,-3.9862 2.36,-6.422238 6.22,-6.422238 1.21,0 2.39,0 3.57,0.615158 0.59,3.05118 0.59,3.05118 0.59,3.05118 -1.18,-0.2953 -2.36,-0.6152 -3.25,-0.6152 -2.68,0 -3.27,1.8455 -3.27,3.9863 0,2.7805 1.77,5.5367 4.75,5.5367 1.18,0 2.07,0 2.98,-0.615 l 0.88,3.075 z"
                     style="fill:#000000;fill-opacity:1;fill-rule:evenodd;stroke:none"
                     id="path2906" />
                  <path
                     d="m 132.8,0.34114 c 3.84,0 3.84,0 3.84,0 1.5,7.67716 1.5,7.67716 1.5,7.67716 0.3,2.1407 1.48,4.6017 4.16,4.6017 1.18,0 2.07,-0.615 2.07,-1.846 0,-1.2301 -0.3,-2.1405 -0.6,-3.3709 -1.47,-7.06196 -1.47,-7.06196 -1.47,-7.06196 3.86,0 3.86,0 3.86,0 1.48,7.35726 1.48,7.35726 1.48,7.35726 0.29,0.9351 0.59,2.1654 0.59,3.3706 0,2.781 -2.07,4.602 -4.75,4.602 -1.77,0 -3.27,-0.591 -4.16,-1.821 0,0 0,0 0,0 1.8,8.588 1.8,8.588 1.8,8.588 -3.87,0 -3.87,0 -3.87,0 L 132.8,0.34114 z"
                     style="fill:#000000;fill-opacity:1;fill-rule:evenodd;stroke:none"
                     id="path2908" />
                </g>
              </g>
            </g>
          </g>
        </g>
        <g
           id="g2910">
          <g
             id="g2912"
             clip-path="url(#clipPath2914)" />
        </g>
      </g>
    </g>
    <g
       id="g2828"
       transform="matrix(1.25,0,0,-1.25,-23.640455,1039.8504)">
      <g
         id="g2830"
         clip-path="url(#clipPath2832)">
        <g
           id="g2836"
           transform="matrix(79.95,0,0,81.1,67.55,733.58)" />
        <g
           id="g2838">
          <g
             id="g2840"
             clip-path="url(#clipPath2842)" />
        </g>
      </g>
    </g>
    <g
       id="g5898"
       transform="matrix(0.30343742,0,0,0.30343742,346.4456,-60.781959)">
      <path
         transform="matrix(0.05640909,0,0,0.05257946,394.85426,-194.91078)"
         d="m 2889.0587,1499.0437 c 0,729.2313 -550.7377,1320.3901 -1230.107,1320.3901 -679.36941,0 -1230.1071,-591.1588 -1230.1071,-1320.3901 0,-729.23134 550.73769,-1320.39014 1230.1071,-1320.39014 679.3693,0 1230.107,591.1588 1230.107,1320.39014 z"
         sodipodi:ry="1320.3901"
         sodipodi:rx="1230.1071"
         sodipodi:cy="1499.0437"
         sodipodi:cx="1658.9517"
         id="path2228-4"
         style="fill:none;stroke:#001001;stroke-width:235.61000061;stroke-miterlimit:4;stroke-opacity:1;stroke-dasharray:none;stroke-dashoffset:0;display:inline"
         sodipodi:type="arc" />
      <path
         transform="matrix(0.05618157,0,0,0.05234011,395.23908,-194.573)"
         d="m 2889.0587,1499.0437 c 0,729.2313 -550.7377,1320.3901 -1230.107,1320.3901 -679.36941,0 -1230.1071,-591.1588 -1230.1071,-1320.3901 0,-729.23134 550.73769,-1320.39014 1230.1071,-1320.39014 679.3693,0 1230.107,591.1588 1230.107,1320.39014 z"
         sodipodi:ry="1320.3901"
         sodipodi:rx="1230.1071"
         sodipodi:cy="1499.0437"
         sodipodi:cx="1658.9517"
         id="path2228"
         style="fill:none;stroke:#ffd401;stroke-width:235.61000061;stroke-miterlimit:4;stroke-opacity:1;stroke-dasharray:none;stroke-dashoffset:0;display:inline"
         sodipodi:type="arc" />
      <path
         id="path3118"
         d="m 466.36288,-175.1666 c -0.1339,0 -0.2677,0 0,0 z"
         style="fill:none;stroke:#001001;stroke-width:0.05033167px;stroke-linecap:butt;stroke-linejoin:miter;stroke-opacity:1;display:inline" />
      <path
         sodipodi:nodetypes="ccccccc"
         id="path3120"
         d="m 464.75628,-177.1748 -41.5703,71.4929 53.2181,0.2008 11.8485,-21.0864 -37.5538,0 32.9349,-55.0254 -18.8774,4.4181 z"
         style="fill:#ffd401;fill-opacity:1;fill-rule:evenodd;stroke:#ffd401;stroke-width:0.96636814;stroke-linecap:butt;stroke-linejoin:miter;stroke-miterlimit:4;stroke-opacity:1;stroke-dasharray:none;display:inline" />
      <path
         sodipodi:nodetypes="ccccccccc"
         id="path3122"
         d="m 476.00238,-53.467996 32.1316,-52.615604 -20.4839,-0.2008 11.2461,-19.5802 52.6155,0.1004 -10.4427,19.279 -20.6848,-0.2009 -31.5291,54.021304 -12.8527,-0.8032 z"
         style="fill:#ffd401;fill-opacity:1;fill-rule:evenodd;stroke:#ffd401;stroke-width:2.46121883;stroke-linecap:butt;stroke-linejoin:miter;stroke-miterlimit:4;stroke-opacity:1;stroke-dasharray:none;display:inline" />
    </g>
  </g>
</svg>
